<mxfile host="app.diagrams.net" modified="2023-03-01T14:04:28.796Z" agent="5.0 (Windows NT 10.0; Win64; x64) AppleWebKit/537.36 (KHTML, like Gecko) Chrome/110.0.0.0 Safari/537.36 Edg/110.0.1587.57" etag="2-BYYK63RkAtrHX2Gw-x" version="20.8.23" type="github">
  <diagram id="C5RBs43oDa-KdzZeNtuy" name="Page-1">
    <mxGraphModel dx="1627" dy="1965" grid="1" gridSize="10" guides="1" tooltips="1" connect="1" arrows="1" fold="1" page="1" pageScale="1" pageWidth="827" pageHeight="1169" math="0" shadow="0">
      <root>
        <mxCell id="WIyWlLk6GJQsqaUBKTNV-0" />
        <mxCell id="WIyWlLk6GJQsqaUBKTNV-1" parent="WIyWlLk6GJQsqaUBKTNV-0" />
        <mxCell id="RsSdaprGsyIXPCG9BPT4-3" value="2&amp;lt;0" style="rhombus;whiteSpace=wrap;html=1;" vertex="1" parent="WIyWlLk6GJQsqaUBKTNV-1">
          <mxGeometry x="314" y="-855" width="80" height="80" as="geometry" />
        </mxCell>
        <mxCell id="RsSdaprGsyIXPCG9BPT4-4" value="" style="endArrow=classic;html=1;rounded=0;exitX=1;exitY=0.5;exitDx=0;exitDy=0;" edge="1" parent="WIyWlLk6GJQsqaUBKTNV-1" source="RsSdaprGsyIXPCG9BPT4-3" target="RsSdaprGsyIXPCG9BPT4-19">
          <mxGeometry width="50" height="50" relative="1" as="geometry">
            <mxPoint x="360" y="-850" as="sourcePoint" />
            <mxPoint x="460" y="-750" as="targetPoint" />
            <Array as="points">
              <mxPoint x="460" y="-800" />
            </Array>
          </mxGeometry>
        </mxCell>
        <mxCell id="RsSdaprGsyIXPCG9BPT4-5" value="" style="endArrow=classic;html=1;rounded=0;exitX=0;exitY=0.5;exitDx=0;exitDy=0;" edge="1" parent="WIyWlLk6GJQsqaUBKTNV-1" source="RsSdaprGsyIXPCG9BPT4-3" target="RsSdaprGsyIXPCG9BPT4-17">
          <mxGeometry width="50" height="50" relative="1" as="geometry">
            <mxPoint x="360" y="-850" as="sourcePoint" />
            <mxPoint x="260" y="-720" as="targetPoint" />
            <Array as="points">
              <mxPoint x="250" y="-800" />
            </Array>
          </mxGeometry>
        </mxCell>
        <mxCell id="RsSdaprGsyIXPCG9BPT4-6" value="NIE" style="text;html=1;strokeColor=none;fillColor=none;align=center;verticalAlign=middle;whiteSpace=wrap;rounded=0;" vertex="1" parent="WIyWlLk6GJQsqaUBKTNV-1">
          <mxGeometry x="254" y="-840" width="60" height="30" as="geometry" />
        </mxCell>
        <mxCell id="RsSdaprGsyIXPCG9BPT4-7" value="TAK" style="text;html=1;strokeColor=none;fillColor=none;align=center;verticalAlign=middle;whiteSpace=wrap;rounded=0;" vertex="1" parent="WIyWlLk6GJQsqaUBKTNV-1">
          <mxGeometry x="410" y="-830" width="60" height="30" as="geometry" />
        </mxCell>
        <mxCell id="RsSdaprGsyIXPCG9BPT4-9" value="START" style="ellipse;whiteSpace=wrap;html=1;" vertex="1" parent="WIyWlLk6GJQsqaUBKTNV-1">
          <mxGeometry x="294" y="-1110" width="120" height="80" as="geometry" />
        </mxCell>
        <mxCell id="RsSdaprGsyIXPCG9BPT4-11" value="pobierz a&amp;nbsp;" style="rounded=0;whiteSpace=wrap;html=1;" vertex="1" parent="WIyWlLk6GJQsqaUBKTNV-1">
          <mxGeometry x="294" y="-960" width="120" height="60" as="geometry" />
        </mxCell>
        <mxCell id="RsSdaprGsyIXPCG9BPT4-13" value="" style="endArrow=classic;html=1;rounded=0;exitX=0.5;exitY=1;exitDx=0;exitDy=0;entryX=0.5;entryY=0;entryDx=0;entryDy=0;" edge="1" parent="WIyWlLk6GJQsqaUBKTNV-1" source="RsSdaprGsyIXPCG9BPT4-9" target="RsSdaprGsyIXPCG9BPT4-11">
          <mxGeometry width="50" height="50" relative="1" as="geometry">
            <mxPoint x="600" y="-720" as="sourcePoint" />
            <mxPoint x="410" y="-780" as="targetPoint" />
          </mxGeometry>
        </mxCell>
        <mxCell id="RsSdaprGsyIXPCG9BPT4-14" value="" style="endArrow=classic;html=1;rounded=0;exitX=0.5;exitY=1;exitDx=0;exitDy=0;" edge="1" parent="WIyWlLk6GJQsqaUBKTNV-1" source="RsSdaprGsyIXPCG9BPT4-11" target="RsSdaprGsyIXPCG9BPT4-3">
          <mxGeometry width="50" height="50" relative="1" as="geometry">
            <mxPoint x="360" y="-730" as="sourcePoint" />
            <mxPoint x="410" y="-780" as="targetPoint" />
          </mxGeometry>
        </mxCell>
        <mxCell id="RsSdaprGsyIXPCG9BPT4-17" value="a" style="rounded=0;whiteSpace=wrap;html=1;" vertex="1" parent="WIyWlLk6GJQsqaUBKTNV-1">
          <mxGeometry x="190" y="-740" width="120" height="60" as="geometry" />
        </mxCell>
        <mxCell id="RsSdaprGsyIXPCG9BPT4-22" value="" style="edgeStyle=orthogonalEdgeStyle;rounded=0;orthogonalLoop=1;jettySize=auto;html=1;" edge="1" parent="WIyWlLk6GJQsqaUBKTNV-1" source="RsSdaprGsyIXPCG9BPT4-19" target="RsSdaprGsyIXPCG9BPT4-20">
          <mxGeometry relative="1" as="geometry">
            <Array as="points">
              <mxPoint x="454" y="-640" />
              <mxPoint x="354" y="-640" />
            </Array>
          </mxGeometry>
        </mxCell>
        <mxCell id="RsSdaprGsyIXPCG9BPT4-19" value="|a|" style="rounded=0;whiteSpace=wrap;html=1;" vertex="1" parent="WIyWlLk6GJQsqaUBKTNV-1">
          <mxGeometry x="394" y="-740" width="120" height="60" as="geometry" />
        </mxCell>
        <mxCell id="RsSdaprGsyIXPCG9BPT4-20" value="STOP" style="ellipse;whiteSpace=wrap;html=1;" vertex="1" parent="WIyWlLk6GJQsqaUBKTNV-1">
          <mxGeometry x="294" y="-630" width="120" height="80" as="geometry" />
        </mxCell>
        <mxCell id="RsSdaprGsyIXPCG9BPT4-23" value="" style="endArrow=classic;html=1;rounded=0;exitX=0.5;exitY=1;exitDx=0;exitDy=0;" edge="1" parent="WIyWlLk6GJQsqaUBKTNV-1" source="RsSdaprGsyIXPCG9BPT4-17" target="RsSdaprGsyIXPCG9BPT4-20">
          <mxGeometry width="50" height="50" relative="1" as="geometry">
            <mxPoint x="360" y="-730" as="sourcePoint" />
            <mxPoint x="410" y="-780" as="targetPoint" />
          </mxGeometry>
        </mxCell>
      </root>
    </mxGraphModel>
  </diagram>
</mxfile>
